Source: Bloodsport.1988.720p.BluRay.x264-FilmHD

Subs: Arabic, Bulgarian, Chinese, Danish, Dutch, English, Finnish, French, Indonesian, Portuguese, Servian, Spanish, Swedish and Vietnamese.

Sample and Screens included.

General
Complete name                    : Bloodsport-720p MP4 AAC x264 BRRip 1988-CC.mp4
Format                           : MPEG-4
Format profile                   : Base Media
Codec ID                         : isom
File size                        : 1.69 GiB
Duration                         : 1h 32mn
Overall bit rate                 : 2 625 Kbps
Encoded date                     : UTC 2012-04-04 13:06:28


Video
ID                               : 1
Format                           : AVC
Format/Info                      : Advanced Video Codec
Format profile                   : High@L3.1
Format settings, CABAC           : Yes
Format settings, ReFrames        : 5 frames
Codec ID                         : avc1
Codec ID/Info                    : Advanced Video Coding
Duration                         : 1h 32mn
Bit rate mode                    : Variable
Bit rate                         : 2 300 Kbps
Nominal bit rate                 : 2 343 Kbps
Maximum bit rate                 : 12.6 Mbps
Width                            : 1 280 pixels
Height                           : 720 pixels
Display aspect ratio             : 16:9
Frame rate mode                  : Variable
Frame rate                       : 23.976 fps
Minimum frame rate               : 19.048 fps
Maximum frame rate               : 25.000 fps
Resolution                       : 24 bits
Colorimetry                      : 4:2:0
Scan type                        : Progressive
Bits/(Pixel*Frame)               : 0.104
Stream size                      : 1.48 GiB (88%)
Writing library                  : x264 core 112

Audio
ID                               : 2
Format                           : AAC
Format/Info                      : Advanced Audio Codec
Format version                   : Version 4
Format profile                   : LC
Format settings, SBR             : No
Codec ID                         : 40
Duration                         : 1h 32mn
Bit rate mode                    : Variable
Bit rate                         : 319 Kbps
Maximum bit rate                 : 406 Kbps
Channel(s)                       : 2 channels
Channel positions                : L R
Sampling rate                    : 48.0 KHz
Resolution                       : 16 bits
Stream size                      : 211 MiB (12%)
Language                         : English